<?xml version="1.0" standalone="no"?>
<!DOCTYPE svg PUBLIC "-//W3C//DTD SVG 20010904//EN"
 "http://www.w3.org/TR/2001/REC-SVG-20010904/DTD/svg10.dtd">
<svg version="1.0" xmlns="http://www.w3.org/2000/svg"
 width="100.000000pt" height="71.000000pt" viewBox="0 0 100.000000 71.000000"
 preserveAspectRatio="xMidYMid meet">

<g transform="translate(0.000000,71.000000) scale(0.100000,-0.100000)"
fill="red" stroke="none">
<path d="M267 624 c-31 -17 -30 -42 5 -80 25 -28 16 -66 -25 -100 -26 -22 -38
-25 -71 -21 -51 7 -88 36 -100 76 -13 46 16 81 85 103 44 14 49 17 24 17 -16
1 -54 -10 -83 -24 -42 -19 -56 -32 -69 -62 -33 -79 15 -147 104 -147 131 1
248 145 187 232 -18 26 -20 26 -57 6z"/>
<path d="M460 625 c-10 -11 -10 -19 -2 -27 15 -15 44 -2 40 19 -4 23 -22 27
-38 8z"/>
<path d="M684 625 c-4 -9 -2 -21 4 -27 15 -15 44 -1 40 19 -4 23 -36 29 -44 8z"/>
<path d="M377 623 c-3 -5 -8 -38 -12 -74 -6 -55 -4 -68 10 -83 17 -16 19 -16
34 -1 11 12 13 19 4 22 -8 3 -10 25 -6 74 5 59 4 69 -10 69 -9 0 -18 -3 -20
-7z"/>
<path d="M537 559 c-3 -12 1 -31 9 -43 7 -11 14 -28 14 -38 0 -29 33 -21 63
16 31 39 37 79 11 74 -11 -2 -18 -15 -19 -36 -3 -40 -12 -52 -20 -26 -20 64
-49 90 -58 53z"/>
<path d="M775 560 c-20 -22 -19 -74 1 -94 18 -19 28 -20 55 -6 22 12 26 32 5
24 -8 -3 -17 -1 -20 4 -3 6 6 13 20 16 20 5 25 12 22 33 -4 35 -58 50 -83 23z
m50 -30 c0 -7 -6 -15 -12 -17 -8 -3 -13 4 -13 17 0 13 5 20 13 18 6 -3 12 -11
12 -18z"/>
<path d="M941 563 c-6 -10 -11 -12 -11 -5 0 6 -8 12 -19 12 -14 0 -21 -10 -25
-35 -8 -41 7 -75 34 -75 23 0 37 20 20 30 -18 11 -8 46 13 42 10 -2 17 4 17
13 0 8 0 18 1 22 1 16 -20 13 -30 -4z"/>
<path d="M460 558 c-15 -6 -20 -12 -12 -15 7 -3 12 -23 12 -50 0 -37 3 -44 16
-39 9 3 19 6 22 6 4 0 5 25 4 55 -4 59 -4 59 -42 43z"/>
<path d="M690 558 c-15 -6 -20 -12 -12 -15 7 -3 12 -23 12 -50 0 -37 3 -44 16
-39 9 3 18 6 20 6 2 0 4 25 4 55 0 58 -1 60 -40 43z"/>
<path d="M258 248 c-9 -7 -29 -44 -44 -83 -15 -38 -36 -82 -46 -97 -33 -48
-82 -32 -107 36 -10 23 -14 26 -26 16 -8 -7 -15 -25 -15 -41 0 -56 95 -85 141
-44 11 11 38 54 59 95 l38 75 6 -35 c3 -19 10 -57 14 -85 l8 -50 32 32 c18 17
32 42 32 55 0 36 23 106 28 85 5 -25 25 -16 36 16 12 34 5 41 -26 27 -16 -8
-31 -29 -44 -63 l-19 -52 -3 50 c-5 70 -27 92 -64 63z"/>
<path d="M507 253 c-4 -3 -7 -17 -7 -30 0 -16 -6 -23 -18 -23 -23 0 -51 -29
-53 -56 -6 -62 13 -84 39 -44 16 26 32 26 32 0 0 -13 7 -20 20 -20 19 0 20 7
20 90 0 68 -3 90 -13 90 -8 0 -17 -3 -20 -7z m-17 -92 c0 -17 -12 -41 -21 -41
-5 0 -9 11 -9 25 0 16 6 25 15 25 8 0 15 -4 15 -9z"/>
<path d="M581 186 c-7 -8 -11 -34 -9 -58 3 -40 5 -43 34 -46 19 -2 36 3 44 12
10 14 9 16 -8 16 -12 0 -24 5 -27 10 -3 6 5 10 19 10 29 0 44 33 26 55 -16 19
-64 19 -79 1z m49 -31 c0 -8 -7 -15 -15 -15 -9 0 -12 6 -9 15 4 8 10 15 15 15
5 0 9 -7 9 -15z"/>
<path d="M841 186 c-7 -8 -11 -34 -9 -58 3 -40 5 -43 34 -46 19 -2 36 3 44 12
10 14 9 16 -8 16 -12 0 -24 5 -27 10 -3 6 5 10 19 10 29 0 44 33 26 55 -16 19
-64 19 -79 1z m49 -31 c0 -8 -7 -15 -15 -15 -9 0 -12 6 -9 15 4 8 10 15 15 15
5 0 9 -7 9 -15z"/>
<path d="M690 141 c0 -60 12 -70 39 -34 l20 28 1 -39 c0 -37 -1 -38 -30 -34
-17 3 -33 1 -36 -4 -9 -13 14 -35 41 -40 38 -8 62 26 73 105 8 65 8 67 -13 67
-14 0 -27 -10 -35 -27 l-14 -28 -4 28 c-2 19 -9 27 -23 27 -16 0 -19 -7 -19
-49z"/>
</g>
</svg>
